<svg width="24" height="24" viewBox="0 0 24 24" fill="none" xmlns="http://www.w3.org/2000/svg">
<g clip-path="url(#clip0_34_648)">
<path d="M14.6406 12.375C14.6406 14.0313 13.2969 15.3906 11.625 15.3906C9.95312 15.3906 8.60938 14.0469 8.60938 12.375C8.60938 10.7031 9.95312 9.35938 11.625 9.35938C13.2969 9.35938 14.6406 10.7031 14.6406 12.375Z" fill="black"/>
<path d="M10.7812 11.8125C11.2818 11.8125 11.6875 11.4068 11.6875 10.9062C11.6875 10.4057 11.2818 10 10.7812 10C10.2807 10 9.875 10.4057 9.875 10.9062C9.875 11.4068 10.2807 11.8125 10.7812 11.8125Z" fill="#AEAEAF"/>
<path d="M10.75 11.5938C11.1556 11.5938 11.4844 11.265 11.4844 10.8594C11.4844 10.4538 11.1556 10.125 10.75 10.125C10.3444 10.125 10.0156 10.4538 10.0156 10.8594C10.0156 11.265 10.3444 11.5938 10.75 11.5938Z" fill="white"/>
<path d="M18.5781 10.3594C18.7656 11 18.8594 11.6562 18.8594 12.3594C18.8594 12.75 18.8281 13.1406 18.7656 13.5156C18.7031 13.875 18.625 14.2344 18.5156 14.5781C18.4375 14.375 18.3438 14.1875 18.25 14C17.9531 13.3906 17.5625 12.8281 17.1094 12.3281C16.7656 11.9531 16.375 11.6094 15.9531 11.3125C15.4844 10.9844 14.9844 10.7031 14.4531 10.5C14.4063 10.4844 14.375 10.4687 14.3281 10.4531C14.1406 10.1875 13.9063 9.95312 13.6563 9.75C13.3438 9.5 12.9844 9.3125 12.6094 9.20312C12.8438 9.14062 13.0781 9.09375 13.3281 9.0625C13.6562 9.01562 13.9844 9 14.3281 9C15.0781 9 15.7969 9.10937 16.4688 9.32812C17.2344 9.5625 17.9531 9.92187 18.5781 10.3906V10.3594Z" fill="url(#paint0_linear_34_648)"/>
<path d="M18.4219 9.875C18.4844 10.0312 18.5312 10.1875 18.5781 10.3594C17.9375 9.89062 17.2344 9.53125 16.4687 9.29687C15.7969 9.09375 15.0781 8.96875 14.3281 8.96875C13.9844 8.96875 13.6562 9 13.3281 9.03125C13.0781 9.0625 12.8437 9.10937 12.6094 9.17187C12.2969 9.07812 11.9687 9.03125 11.625 9.03125C11.625 9.03125 11.5937 9.03125 11.5781 9.03125C11.3594 9.03125 11.1562 9.0625 10.9531 9.09375C11.0625 9 11.1719 8.92188 11.2812 8.82812C11.7031 8.51562 12.1562 8.23438 12.6406 8.01563C13.0781 7.8125 13.5469 7.65625 14.0156 7.54687C14.5312 7.42187 15.0781 7.35938 15.625 7.35938C15.8906 7.35938 16.1406 7.35937 16.4062 7.40625C16.5937 7.42187 16.7969 7.45312 16.9844 7.48437C17.6094 8.17187 18.0937 8.98437 18.4062 9.85937L18.4219 9.875Z" fill="url(#paint1_linear_34_648)"/>
<path d="M18.25 13.9844C18.3438 14.1719 18.4375 14.375 18.5156 14.5625C18.2344 15.4219 17.8125 16.2187 17.25 16.9062C17.0625 17.1406 16.8594 17.3594 16.6562 17.5625C16.7031 17.2031 16.7344 16.8437 16.7344 16.4844C16.7344 15.9844 16.6875 15.5 16.5937 15.0312C16.3906 14.0469 16 13.125 15.4375 12.3281C15.2656 12.0937 15.0937 11.8594 14.8906 11.6406C14.8125 11.2656 14.6719 10.9063 14.4687 10.5938C14.4375 10.5313 14.3906 10.4687 14.3438 10.4219C14.3906 10.4219 14.4219 10.4531 14.4687 10.4687C15 10.6875 15.5 10.9531 15.9688 11.2812C16.3906 11.5781 16.7656 11.9219 17.125 12.2969C17.5781 12.7969 17.9687 13.3594 18.2656 13.9687L18.25 13.9844Z" fill="url(#paint2_linear_34_648)"/>
<path d="M16.7188 16.5C16.7188 16.8594 16.6875 17.2344 16.6406 17.5781C15.9531 18.25 15.1406 18.7656 14.2344 19.125C13.875 19.2656 13.5156 19.375 13.1406 19.4531C13.2812 19.2656 13.4219 19.0781 13.5469 18.8906C13.9219 18.3125 14.2188 17.6562 14.4063 16.9844C14.5313 16.5469 14.6094 16.0937 14.6563 15.625C14.6719 15.4062 14.6875 15.2031 14.6875 14.9844C14.6875 14.75 14.6875 14.5156 14.6563 14.2813C14.6563 14.1406 14.625 14.0156 14.6094 13.875C14.7188 13.6562 14.8125 13.4062 14.875 13.1562C14.9375 12.9062 14.9688 12.6406 14.9688 12.3594C14.9688 12.125 14.9375 11.8906 14.8906 11.6562C15.0937 11.875 15.2656 12.1094 15.4375 12.3438C16 13.1406 16.3906 14.0625 16.5938 15.0469C16.6875 15.5156 16.7344 16 16.7344 16.5H16.7188Z" fill="url(#paint3_linear_34_648)"/>
<path d="M16.9844 7.5C16.7969 7.46875 16.6094 7.4375 16.4063 7.42187C16.1563 7.39062 15.8906 7.375 15.625 7.375C15.0625 7.375 14.5313 7.4375 14.0156 7.5625C13.5313 7.67188 13.0781 7.82812 12.6406 8.03125C12.1563 8.25 11.7031 8.53125 11.2812 8.84375C11.1719 8.92187 11.0625 9.01562 10.9531 9.10937C10.7344 9.15625 10.5156 9.21875 10.3125 9.3125C9.95312 9.46875 9.625 9.6875 9.34375 9.95312C9.42188 9.71875 9.5 9.48437 9.60938 9.26562C10.0156 8.32812 10.625 7.48437 11.375 6.79687C12.0313 6.20312 12.7969 5.71875 13.6406 5.40625C14.6406 5.6875 15.5469 6.1875 16.3125 6.84375C16.5625 7.04688 16.7813 7.28125 17 7.51562L16.9844 7.5Z" fill="url(#paint4_linear_34_648)"/>
<path d="M14.6562 14.9688C14.6562 15.1875 14.6562 15.4063 14.625 15.6094C14.5781 16.0781 14.5 16.5312 14.375 16.9688C14.1875 17.6562 13.8906 18.2969 13.5156 18.875C13.3906 19.0781 13.25 19.2656 13.1094 19.4375C12.625 19.5469 12.125 19.5938 11.625 19.5938C11.1563 19.5938 10.7188 19.5469 10.2813 19.4688C10.0625 19.4219 9.84375 19.375 9.625 19.3125C10.4531 18.9844 11.2188 18.5156 11.8594 17.9219C12.5469 17.2969 13.125 16.5313 13.5312 15.6719C13.6719 15.375 13.7969 15.0781 13.8906 14.7656C14 14.6563 14.1094 14.5469 14.2031 14.4375C14.3594 14.25 14.4844 14.0625 14.5938 13.8438C14.6094 13.9688 14.625 14.1094 14.6406 14.25C14.6562 14.4844 14.6719 14.7188 14.6719 14.9531L14.6562 14.9688Z" fill="url(#paint5_linear_34_648)"/>
<path d="M13.8906 14.7812C13.7969 15.0937 13.6719 15.3906 13.5312 15.6875C13.125 16.5469 12.5625 17.2969 11.8594 17.9375C11.2031 18.5312 10.4531 19 9.625 19.3281C8.8125 19.0937 8.04687 18.7187 7.375 18.2187C6.98437 17.9375 6.625 17.6094 6.29688 17.25C6.57812 17.2812 6.875 17.3125 7.17187 17.3125C7.1875 17.3125 7.21875 17.3125 7.23437 17.3125C7.79687 17.3125 8.32812 17.25 8.84375 17.125C9.40625 17 9.95312 16.7969 10.4687 16.5469C10.875 16.3438 11.25 16.1094 11.6094 15.8281C11.6719 15.7812 11.75 15.7187 11.8125 15.6719C12 15.6719 12.1875 15.6406 12.375 15.5937C12.9375 15.4531 13.4531 15.1719 13.875 14.7969L13.8906 14.7812Z" fill="url(#paint6_linear_34_648)"/>
<path d="M12.5781 5.15625C12.9375 5.20312 13.2969 5.28125 13.6406 5.375C12.7969 5.70313 12.0313 6.17187 11.375 6.76562C10.625 7.45312 10.0156 8.28125 9.60938 9.23437C9.51562 9.45312 9.42187 9.6875 9.34375 9.92187C9.14062 10.1094 8.95312 10.3437 8.8125 10.5781C8.71875 10.7187 8.64062 10.875 8.57812 11.0469C8.5625 10.9375 8.54687 10.8281 8.53125 10.7188C8.5 10.4219 8.46875 10.125 8.46875 9.82812C8.46875 9.65625 8.46875 9.48437 8.48437 9.3125C8.51562 8.79687 8.60937 8.3125 8.75 7.82813C8.95312 7.10938 9.26562 6.42187 9.67188 5.8125C9.79688 5.625 9.9375 5.4375 10.0781 5.26562C10.5781 5.15625 11.0938 5.09375 11.625 5.09375C11.9531 5.09375 12.2656 5.10937 12.5625 5.15625H12.5781Z" fill="url(#paint7_linear_34_648)"/>
<path d="M11.625 15.6719C11.625 15.6719 11.75 15.6719 11.8281 15.6719C11.7656 15.7187 11.7031 15.7813 11.625 15.8281C11.2656 16.0938 10.8906 16.3438 10.4844 16.5469C9.96875 16.7969 9.4375 17 8.85938 17.125C8.34375 17.25 7.79687 17.3125 7.25 17.3125C7.23437 17.3125 7.20312 17.3125 7.1875 17.3125C6.89062 17.3125 6.59375 17.2969 6.3125 17.25C5.71875 16.5938 5.23438 15.8281 4.90625 14.9844C4.78125 14.6719 4.6875 14.3594 4.60938 14.0469C5.34375 14.6719 6.20313 15.1563 7.14063 15.4531C7.8125 15.6563 8.53125 15.7813 9.28125 15.7813C9.5 15.7813 9.73437 15.7813 9.95312 15.75C10.2656 15.7188 10.5781 15.6719 10.8906 15.5937C11.0625 15.625 11.2344 15.6562 11.4063 15.6719C11.4844 15.6719 11.5625 15.6719 11.625 15.6719Z" fill="url(#paint8_linear_34_648)"/>
<path d="M9.5625 14.9531C9.9375 15.2656 10.3906 15.4844 10.8906 15.5937C10.5937 15.6562 10.2812 15.7188 9.95312 15.75C9.73437 15.7656 9.51562 15.7813 9.28125 15.7813C8.53125 15.7813 7.8125 15.6719 7.14063 15.4531C6.20313 15.1563 5.34375 14.6719 4.60938 14.0469C4.48438 13.5 4.40625 12.9375 4.40625 12.3438C4.40625 11.9844 4.4375 11.6094 4.48437 11.2656C4.53125 10.8906 4.625 10.5313 4.73438 10.1875C4.8125 10.4063 4.90625 10.6094 5 10.8125C5.3125 11.4688 5.71875 12.0625 6.20312 12.5938C6.59375 13.0313 7.04688 13.4063 7.53125 13.7344C7.8125 13.9219 8.125 14.0938 8.42187 14.25C8.65625 14.3594 8.90625 14.4688 9.15625 14.5469C9.28125 14.6875 9.40625 14.8125 9.54688 14.9219L9.5625 14.9531Z" fill="url(#paint9_linear_34_648)"/>
<path d="M10.0938 5.26562C9.95313 5.4375 9.8125 5.625 9.6875 5.8125C9.28125 6.42188 8.96875 7.10938 8.76563 7.82813C8.625 8.29688 8.54688 8.79688 8.5 9.3125C8.5 9.48438 8.48438 9.65625 8.48438 9.82813C8.48438 10.125 8.5 10.4375 8.54687 10.7188C8.54687 10.8281 8.57813 10.9375 8.59375 11.0469C8.45313 11.3906 8.35938 11.7813 8.34375 12.1719C8.34375 12.2188 8.34375 12.2813 8.34375 12.3281C8.34375 12.7188 8.40625 13.0938 8.53125 13.4375C8.54688 13.5 8.57813 13.5625 8.59375 13.625C8.34375 13.3906 8.125 13.1406 7.92188 12.875C7.25 12.0156 6.76563 10.9844 6.54688 9.85938C6.45313 9.39063 6.40625 8.90625 6.40625 8.40625C6.40625 8.01563 6.4375 7.625 6.5 7.25C7.21875 6.51562 8.07813 5.9375 9.04688 5.5625C9.39062 5.42188 9.75 5.3125 10.125 5.23438L10.0938 5.26562Z" fill="url(#paint10_linear_34_648)"/>
<path d="M8.57812 13.6562C8.71875 14 8.92187 14.3125 9.15625 14.5781C8.90625 14.4844 8.65625 14.3906 8.42187 14.2813C8.10937 14.125 7.8125 13.9688 7.53125 13.7656C7.04688 13.4375 6.59375 13.0469 6.20312 12.625C5.71875 12.0938 5.3125 11.5 5 10.8438C4.90625 10.6406 4.8125 10.4219 4.73438 10.2188C5 9.35938 5.42187 8.57813 5.95312 7.90625C6.10937 7.70313 6.29687 7.5 6.46875 7.3125C6.40625 7.6875 6.375 8.07813 6.375 8.46875C6.375 8.96875 6.42187 9.45312 6.51562 9.92188C6.73437 11.0469 7.21875 12.0625 7.89062 12.9375C8.09375 13.2031 8.32812 13.4531 8.5625 13.6875L8.57812 13.6562Z" fill="url(#paint11_linear_34_648)"/>
<path fill-rule="evenodd" clip-rule="evenodd" d="M2.95335 20.0625C-1.65602 14.8437 0.406476 6.32812 0.781476 0C6.1096 0.328125 15.344 -0.03125 19.7971 4.01562C19.2346 4.6875 18.6721 5.35937 18.1409 5.98437C13.3596 1.125 7.2971 4.29687 7.50023 4.29687C7.1096 4.29687 5.37523 5.8125 5.51585 5.70312C2.03148 8.875 1.5471 14.5469 4.89085 18.3437C8.28148 22.1875 14.3127 22.5469 18.1565 18.7031C18.6877 19.3437 19.2502 20.0156 19.8284 20.6875C15.2971 25.2187 7.4846 25.1719 2.96898 20.0469L2.95335 20.0625Z" fill="url(#paint12_linear_34_648)"/>
<path fill-rule="evenodd" clip-rule="evenodd" d="M23.7813 9.32812L20.6875 10.8281C20.8594 11.8437 20.8594 12.875 20.6875 13.8906L23.7813 15.3906C23.7813 11.75 23.7813 13.1406 23.7813 9.32812Z" fill="url(#paint13_linear_34_648)"/>
<path fill-rule="evenodd" clip-rule="evenodd" d="M20.5156 10.0469L23.7813 8.29688V4.10938C23.5469 4.26563 21.4844 6.6875 19.9688 8.51562C20.4062 9.46875 20.5 10.0469 20.5156 10.0469Z" fill="url(#paint14_linear_34_648)"/>
<path fill-rule="evenodd" clip-rule="evenodd" d="M20.5156 14.6719L23.7813 16.4062V20.5937C23.5469 20.4375 21.4844 18.0156 19.9688 16.1875C20.4062 15.2344 20.5 14.6719 20.5156 14.6719Z" fill="url(#paint15_linear_34_648)"/>
</g>
<defs>
<linearGradient id="paint0_linear_34_648" x1="12.6094" y1="11.7656" x2="18.8438" y2="11.7656" gradientUnits="userSpaceOnUse">
<stop stop-color="#D87A26"/>
<stop offset="0.21" stop-color="#DD8425"/>
<stop offset="0.57" stop-color="#EAA225"/>
<stop offset="1" stop-color="#FFCD24"/>
</linearGradient>
<linearGradient id="paint1_linear_34_648" x1="10.9687" y1="8.85938" x2="18.5781" y2="8.85938" gradientUnits="userSpaceOnUse">
<stop stop-color="#D56126"/>
<stop offset="0.24" stop-color="#DC7226"/>
<stop offset="0.73" stop-color="#EE9E26"/>
<stop offset="1" stop-color="#FABB26"/>
</linearGradient>
<linearGradient id="paint2_linear_34_648" x1="14.3281" y1="14" x2="18.5" y2="14" gradientUnits="userSpaceOnUse">
<stop stop-color="#A32424"/>
<stop offset="1" stop-color="#E32E2B"/>
</linearGradient>
<linearGradient id="paint3_linear_34_648" x1="14.4063" y1="16.1094" x2="16.2031" y2="19.2344" gradientUnits="userSpaceOnUse">
<stop stop-color="#B72828"/>
<stop offset="0.23" stop-color="#C62A29"/>
<stop offset="0.72" stop-color="#E12E2C"/>
<stop offset="1" stop-color="#EB302D"/>
</linearGradient>
<linearGradient id="paint4_linear_34_648" x1="9.35937" y1="7.65625" x2="16.9844" y2="7.65625" gradientUnits="userSpaceOnUse">
<stop stop-color="#6B8C24"/>
<stop offset="0.07" stop-color="#719326"/>
<stop offset="0.45" stop-color="#8BB230"/>
<stop offset="0.78" stop-color="#9CC536"/>
<stop offset="1" stop-color="#A2CC39"/>
</linearGradient>
<linearGradient id="paint5_linear_34_648" x1="9.625" y1="16.7344" x2="14.6563" y2="16.7344" gradientUnits="userSpaceOnUse">
<stop stop-color="#E77E20"/>
<stop offset="0.27" stop-color="#E77920"/>
<stop offset="0.53" stop-color="#E86D22"/>
<stop offset="0.81" stop-color="#EA5924"/>
<stop offset="1" stop-color="#ED4627"/>
</linearGradient>
<linearGradient id="paint6_linear_34_648" x1="6.3125" y1="17.0469" x2="13.8906" y2="17.0469" gradientUnits="userSpaceOnUse">
<stop stop-color="#F59223"/>
<stop offset="0.39" stop-color="#F27924"/>
<stop offset="1" stop-color="#ED4B26"/>
</linearGradient>
<linearGradient id="paint7_linear_34_648" x1="8.46875" y1="8.07813" x2="13.6406" y2="8.07813" gradientUnits="userSpaceOnUse">
<stop stop-color="#618020"/>
<stop offset="0.41" stop-color="#7DA12F"/>
<stop offset="0.77" stop-color="#8FB639"/>
<stop offset="1" stop-color="#96BE3D"/>
</linearGradient>
<linearGradient id="paint8_linear_34_648" x1="4.60937" y1="15.6875" x2="11.8281" y2="15.6875" gradientUnits="userSpaceOnUse">
<stop stop-color="#C23C93"/>
<stop offset="0.33" stop-color="#AA2A7F"/>
<stop offset="1" stop-color="#70004E"/>
</linearGradient>
<linearGradient id="paint9_linear_34_648" x1="4.40625" y1="12.9844" x2="10.8906" y2="12.9844" gradientUnits="userSpaceOnUse">
<stop stop-color="#C33D92"/>
<stop offset="0.28" stop-color="#B22783"/>
<stop offset="0.74" stop-color="#9B0B6F"/>
<stop offset="1" stop-color="#930168"/>
</linearGradient>
<linearGradient id="paint10_linear_34_648" x1="6.375" y1="9.45313" x2="10.0938" y2="9.45313" gradientUnits="userSpaceOnUse">
<stop stop-color="#0C71B8"/>
<stop offset="0.09" stop-color="#0A6BB0"/>
<stop offset="0.43" stop-color="#075B98"/>
<stop offset="0.74" stop-color="#055289"/>
<stop offset="1" stop-color="#054F85"/>
</linearGradient>
<linearGradient id="paint11_linear_34_648" x1="4.73438" y1="10.9219" x2="9.17187" y2="10.9219" gradientUnits="userSpaceOnUse">
<stop stop-color="#0C6BAF"/>
<stop offset="0.3" stop-color="#0B68AB"/>
<stop offset="0.52" stop-color="#0962A2"/>
<stop offset="0.73" stop-color="#065791"/>
<stop offset="0.92" stop-color="#02477A"/>
<stop offset="1" stop-color="#003F6E"/>
</linearGradient>
<linearGradient id="paint12_linear_34_648" x1="0.000226406" y1="12" x2="23.0543" y2="11.8877" gradientUnits="userSpaceOnUse">
<stop stop-color="#015A62"/>
<stop offset="1" stop-color="#06D2E5"/>
</linearGradient>
<linearGradient id="paint13_linear_34_648" x1="20.6878" y1="12.3603" x2="24.2846" y2="12.3495" gradientUnits="userSpaceOnUse">
<stop stop-color="#015A62"/>
<stop offset="1" stop-color="#06D2E5"/>
</linearGradient>
<linearGradient id="paint14_linear_34_648" x1="19.9687" y1="7.07812" x2="23.7813" y2="7.07812" gradientUnits="userSpaceOnUse">
<stop stop-color="#10656D"/>
<stop offset="1" stop-color="#06D2E5"/>
</linearGradient>
<linearGradient id="paint15_linear_34_648" x1="19.9687" y1="17.625" x2="23.7813" y2="17.625" gradientUnits="userSpaceOnUse">
<stop stop-color="#10656D"/>
<stop offset="1" stop-color="#06D2E5"/>
</linearGradient>
<clipPath id="clip0_34_648">
<rect width="23.7812" height="24" fill="white"/>
</clipPath>
</defs>
</svg>
