<?xml version="1.0" encoding="UTF-8"?>
<svg id="Layer_2" data-name="Layer 2" xmlns="http://www.w3.org/2000/svg" viewBox="0 0 29.7 29.7">
  <defs>
    <style>
      .cls-1 {
        stroke: #002741;
      }

      .cls-1, .cls-2 {
        fill: none;
        stroke-miterlimit: 10;
        stroke-width: 2.11px;
      }

      .cls-2 {
        stroke: #fd442d;
      }

      .cls-3 {
        fill: #fff;
      }

      .cls-4 {
        fill: #002741;
      }
    </style>
  </defs>
  <g id="Layer_1-2" data-name="Layer 1">
    <rect class="cls-3" x="0" y="0" width="29.7" height="29.7" rx="2.39" ry="2.39"/>
    <g>
      <path class="cls-4" d="M19.39,16.48c0,.53-.1,1.01-.3,1.47s-.48.84-.86,1.16c-.42.34-.9.6-1.44.76s-1.16.25-1.85.25c-.81,0-1.5-.07-2.06-.19s-1.02-.26-1.37-.42v-2.24h.28c.41.24.86.45,1.33.61.48.16.95.25,1.42.25.29,0,.59-.03.93-.1.33-.07.6-.19.79-.36.15-.14.27-.28.35-.43s.12-.37.12-.67c0-.24-.05-.44-.16-.61-.11-.17-.24-.31-.41-.41-.24-.15-.54-.25-.88-.3-.34-.05-.66-.07-.94-.07-.41,0-.8.04-1.17.11-.37.07-.7.14-.98.21h-.3v-5.71h6.71v2.2h-4.26v1.39c.14,0,.32-.02.53-.02.22,0,.4-.01.57-.01.56,0,1.05.05,1.49.16.44.11.81.25,1.13.44.41.25.73.58.97.99.23.41.35.92.35,1.55Z"/>
      <polyline class="cls-1" points="18.39 7.83 22.58 7.83 22.58 11.78"/>
      <line class="cls-2" x1="8.34" y1="7.83" x2="12.2" y2="7.83"/>
      <line class="cls-2" x1="8.34" y1="14.69" x2="8.34" y2="7.83"/>
      <polyline class="cls-1" points="12.53 21.87 8.34 21.87 8.34 17.92"/>
      <polyline class="cls-2" points="22.58 17.92 22.58 21.87 18.71 21.87"/>
      <line class="cls-2" x1="4.47" y1="7.83" x2="8.34" y2="7.83"/>
    </g>
  </g>
</svg>